<svg width="72" height="72" viewBox="0 0 72 72" fill="none" xmlns="http://www.w3.org/2000/svg">
<g filter="url(#filter0_d_2300_2040)">
<rect x="8" y="4" width="56" height="56" rx="28" fill="#00ADA8"/>
<path d="M47.625 25.375L45.1875 27.8125L40.1875 22.8125L42.625 20.375C42.875 20.125 43.1875 20 43.5625 20C43.9375 20 44.25 20.125 44.5 20.375L47.625 23.5C47.875 23.75 48 24.0625 48 24.4375C48 24.8125 47.875 25.125 47.625 25.375ZM24 39L38.75 24.25L43.75 29.25L29 44H24V39Z" fill="white"/>
<rect x="8.25" y="4.25" width="55.5" height="55.5" rx="27.75" stroke="url(#paint0_linear_2300_2040)" stroke-width="0.5"/>
<rect x="8.25" y="4.25" width="55.5" height="55.5" rx="27.75" stroke="url(#paint1_linear_2300_2040)" stroke-width="0.5"/>
</g>
<defs>
<filter id="filter0_d_2300_2040" x="0" y="0" width="72" height="72" filterUnits="userSpaceOnUse" color-interpolation-filters="sRGB">
<feFlood flood-opacity="0" result="BackgroundImageFix"/>
<feColorMatrix in="SourceAlpha" type="matrix" values="0 0 0 0 0 0 0 0 0 0 0 0 0 0 0 0 0 0 127 0" result="hardAlpha"/>
<feOffset dy="4"/>
<feGaussianBlur stdDeviation="4"/>
<feColorMatrix type="matrix" values="0 0 0 0 0.2 0 0 0 0 0.2 0 0 0 0 0.2 0 0 0 0.24 0"/>
<feBlend mode="normal" in2="BackgroundImageFix" result="effect1_dropShadow_2300_2040"/>
<feBlend mode="normal" in="SourceGraphic" in2="effect1_dropShadow_2300_2040" result="shape"/>
</filter>
<linearGradient id="paint0_linear_2300_2040" x1="8.27399" y1="4" x2="8.27399" y2="59.452" gradientUnits="userSpaceOnUse">
<stop stop-opacity="0.01"/>
<stop offset="0.8" stop-opacity="0.02"/>
<stop offset="1" stop-opacity="0.04"/>
</linearGradient>
<linearGradient id="paint1_linear_2300_2040" x1="8" y1="4" x2="8" y2="60" gradientUnits="userSpaceOnUse">
<stop stop-color="white" stop-opacity="0.12"/>
<stop offset="0.2" stop-color="white" stop-opacity="0.06"/>
<stop offset="1" stop-color="white" stop-opacity="0.01"/>
</linearGradient>
</defs>
</svg>
